<svg width="45" height="55" viewBox="0 0 45 55" fill="none" xmlns="http://www.w3.org/2000/svg">
<path d="M32.939 9.85907H24.6126V9.15481C24.6126 6.43661 26.8239 4.22522 29.5421 4.22522V0C24.4942 0 20.3872 4.10685 20.3872 9.15492V9.85918H12.0607C5.77924 9.85918 0.668968 14.9696 0.668968 21.2509C0.668968 24.1155 1.73406 26.7343 3.48589 28.738V34.0259C3.48589 40.634 6.7252 46.3501 12.8537 50.5562C17.3323 53.6299 21.7794 54.8119 21.9666 54.8608L22.5 55L23.0332 54.8609C23.2204 54.812 27.6675 53.63 32.1462 50.5563C38.2747 46.3501 41.514 40.634 41.514 34.026V28.7381C43.2658 26.7343 44.3309 24.1155 44.3309 21.2511C44.3309 14.9695 39.2206 9.85907 32.939 9.85907ZM37.2887 34.0259C37.2887 39.2173 34.7862 43.5846 29.8508 47.0065C26.8137 49.1123 23.7163 50.2247 22.5 50.6122C21.2836 50.2247 18.186 49.1122 15.1492 47.0065C10.2139 43.5846 7.71133 39.2173 7.71133 34.0259V29.9448H37.2887V34.0259ZM38.5357 25.7196H6.46416C5.48319 24.4932 4.89441 22.9398 4.89441 21.2508C4.89441 17.2993 8.10922 14.0844 12.0608 14.0844H32.939C36.8907 14.0844 40.1055 17.2993 40.1055 21.2508C40.1055 22.9398 39.5168 24.4932 38.5357 25.7196Z" fill="white"/>
</svg>
