<svg width="28" height="24" viewBox="0 0 28 24" fill="none" xmlns="http://www.w3.org/2000/svg">
<g clip-path="url(#clip0)">
<path d="M27.1 3.4H4.1C4 3.4 3.8 3.5 3.8 3.7V23.3C3.8 23.4 3.9 23.6 4.1 23.6H27.1C27.2 23.6 27.4 23.5 27.4 23.3V3.6C27.4 3.5 27.2 3.4 27.1 3.4ZM1.7 18.4V1.8C1.7 1.7 1.8 1.6 1.9 1.6H21.6C21.7 1.6 21.8 1.7 21.8 1.8V2.9H23.5V0.3C23.5 0.2 23.4 0 23.2 0H0.2C0.1 0 0 0.1 0 0.3V19.9C0 20 0.1 20.2 0.3 20.2H3.3V18.6H1.9C1.8 18.6 1.7 18.5 1.7 18.4ZM8.3 19.5L10.5 14.7L13.1 17.3L16.1 12.5L20.1 16.7L23.7 9.4L24.4 19.5H8.3ZM13.2 7.3C14.3 7.3 15.2 8.2 15.2 9.3C15.2 10.4 14.3 11.3 13.2 11.3C12.1 11.3 11.2 10.4 11.2 9.3C11.2 8.2 12.1 7.3 13.2 7.3Z" fill="#05111C"/>
</g>
<defs>
<clipPath id="clip0">
<rect width="27.4" height="23.5" fill="white"/>
</clipPath>
</defs>
</svg>
