<svg width="93" height="93" viewBox="0 0 93 93" fill="none" xmlns="http://www.w3.org/2000/svg">
<path d="M84.2449 76.2037V72.7623C84.2449 66.9346 81.7688 61.675 77.8119 57.9797H84.4386C89.2252 57.9797 92.9998 54.0919 92.9998 49.4182C92.9998 44.7103 89.1935 40.857 84.4386 40.857C81.1133 40.857 78.4081 38.1516 78.4081 34.8265V34.6329H81.5203C86.241 34.6329 90.0816 30.7921 90.0816 26.0714C90.0816 16.5075 82.3433 8.75508 72.7652 8.75508H72.2448C71.0186 3.73598 66.4834 0 61.0917 0H58.1733C56.6686 0 55.4487 1.2199 55.4487 2.72461V25.1362C55.1072 25.5752 54.6257 26.1944 54.0368 26.9522C48.2479 34.3946 43.6895 42.643 40.4693 51.4909V37.7422C40.4695 16.9207 23.5679 0 2.72461 0C1.2199 0 0 1.2199 0 2.72461V55.2551C0 75.3558 16.1627 93 37.7449 93H90.2754C91.7801 93 93 91.7801 93 90.2754V87.3541C93 81.9639 89.2646 77.4298 84.2449 76.2037ZM5.44922 55.2551V5.56147C21.7317 6.91088 17.0196 34.2952 17.0196 51.4909L30.0882 22.0343L35.0203 82.3755V87.4382C18.4825 86.0661 5.44922 72.2147 5.44922 55.2551ZM87.5508 87.5508H40.4695V82.3755C40.4695 72.9879 42.0142 63.7261 45.0607 54.8468C48.1073 45.9671 52.5746 37.7077 58.339 30.2967C59.5632 28.7212 60.3225 27.7461 60.323 27.7454C60.6958 27.267 60.8981 26.6779 60.8981 26.0714V5.44922H61.0919C64.4172 5.44922 67.1224 8.15458 67.1224 11.4797C67.1224 12.9844 68.3423 14.2043 69.847 14.2043H72.7652C79.3186 14.2043 84.6324 19.5064 84.6324 26.0714C84.6324 27.7874 83.2363 29.1837 81.5203 29.1837H75.6837C74.1789 29.1837 72.959 30.4036 72.959 31.9083V34.8265C72.959 41.1565 78.1089 46.3062 84.4387 46.3062C86.1351 46.3062 87.5508 47.6778 87.5508 49.4182C87.5508 51.1182 86.1763 52.5305 84.4387 52.5305H64.0102C64.0072 52.5305 64.0043 52.5305 64.0014 52.5305C62.5007 52.5352 61.2855 53.7531 61.2855 55.2551C61.2855 56.7598 62.5054 57.9797 64.0102 57.9797H64.0131C72.1642 57.9797 78.7957 64.6112 78.7957 72.7623V78.6019C78.7957 80.1066 80.0185 81.3265 81.5234 81.3265C84.8469 81.3265 87.551 84.0304 87.551 87.3541L87.5508 87.5508Z" fill="#632B9B"/>
</svg>
